<svg version="1.1" xmlns="http://www.w3.org/2000/svg" xmlns:xlink="http://www.w3.org/1999/xlink" width="800px" height="800px" viewBox="0,0,256,256"><g fill="#ebf9f8" fill-rule="nonzero" stroke="none" stroke-width="1" stroke-linecap="butt" stroke-linejoin="miter" stroke-miterlimit="10" stroke-dasharray="" stroke-dashoffset="0" font-family="none" font-weight="none" font-size="none" text-anchor="none" style="mix-blend-mode: normal"><path d="M0,256v-256h256v256z" id="bgRectangle"></path></g><g fill="none" fill-rule="nonzero" stroke="none" stroke-width="1" stroke-linecap="butt" stroke-linejoin="miter" stroke-miterlimit="10" stroke-dasharray="" stroke-dashoffset="0" font-family="none" font-weight="none" font-size="none" text-anchor="none" style="mix-blend-mode: normal"><g transform="scale(4,4)"><g id="Layer_1"><g fill="#37c3bf"><circle cx="32" cy="32" r="32"></circle></g><g fill="#231f20" opacity="0.2"><g><g><path d="M42.5,44c-0.7,0 -1.3,-0.3 -1.7,-1c-0.6,-0.9 -0.3,-2.2 0.7,-2.8l10.1,-6.2c0,0 0,0 0,-0.1c0,-0.1 0,0 0,-0.1l-10.1,-6.2c-0.9,-0.6 -1.2,-1.8 -0.7,-2.8c0.6,-0.9 1.8,-1.2 2.8,-0.7l10.6,6.6l0.2,0.2c0.8,0.8 1.2,1.9 1.2,3c0,1.1 -0.4,2.2 -1.2,3l-0.2,0.2l-10.6,6.6c-0.4,0.2 -0.8,0.3 -1.1,0.3z"></path></g></g><g><g><path d="M21.5,44c-0.4,0 -0.7,-0.1 -1,-0.3l-10.6,-6.6l-0.2,-0.1c-0.8,-0.8 -1.2,-1.9 -1.2,-3c0,-1.1 0.4,-2.2 1.2,-3l0.2,-0.2l10.6,-6.6c0.9,-0.6 2.2,-0.3 2.8,0.7c0.6,0.9 0.3,2.2 -0.7,2.8l-10.1,6.2c0,0 0,0 0,0.1c0,0.1 0,0 0,0.1l10.1,6.2c0.9,0.6 1.2,1.8 0.7,2.8c-0.4,0.6 -1.1,0.9 -1.8,0.9z"></path></g></g></g><g fill="#231f20" opacity="0.2"><g><path d="M25.5,53c-0.2,0 -0.5,0 -0.7,-0.1c-1,-0.4 -1.5,-1.6 -1.2,-2.6l13,-34c0.4,-1 1.6,-1.5 2.6,-1.2c1,0.4 1.5,1.6 1.2,2.6l-13,34c-0.3,0.8 -1.1,1.3 -1.9,1.3z"></path></g></g><g fill="#ffffff"><g><path d="M42.5,42c-0.7,0 -1.3,-0.3 -1.7,-1c-0.6,-0.9 -0.3,-2.2 0.7,-2.8l10.1,-6.2v-0.1l-10.1,-6.2c-0.9,-0.6 -1.2,-1.8 -0.7,-2.8c0.6,-0.9 1.8,-1.2 2.8,-0.7l10.6,6.6l0.2,0.2c1.6,1.6 1.6,4.3 0,6l-0.2,0.2l-10.6,6.6c-0.4,0.1 -0.8,0.2 -1.1,0.2z"></path></g><g><path d="M21.5,42c-0.4,0 -0.7,-0.1 -1,-0.3l-10.6,-6.6l-0.2,-0.1c-1.6,-1.6 -1.6,-4.3 0,-6l0.2,-0.2l10.6,-6.6c0.9,-0.6 2.2,-0.3 2.8,0.7c0.6,0.9 0.3,2.2 -0.7,2.8l-10.1,6.2v0.1l10.1,6.2c0.9,0.6 1.2,1.8 0.7,2.8c-0.4,0.7 -1.1,1 -1.8,1z"></path></g></g><g fill="#ffffff"><path d="M25.5,51c-0.2,0 -0.5,0 -0.7,-0.1c-1,-0.4 -1.5,-1.6 -1.2,-2.6l13,-34c0.4,-1 1.6,-1.5 2.6,-1.2c1,0.4 1.5,1.6 1.2,2.6l-13,34c-0.3,0.8 -1.1,1.3 -1.9,1.3z"></path></g></g><g id="Layer_2" fill="#000000" font-family="Inter, apple-system, BlinkMacSystemFont, &quot;Helvetica Neue&quot;, &quot;Segoe UI&quot;, &quot;Fira Sans&quot;, Roboto, Oxygen, Ubuntu, &quot;Droid Sans&quot;, Arial, sans-serif" font-weight="400" font-size="16" text-anchor="start"></g></g></g></svg>